<?xml version="1.0" encoding="UTF-8"?>
<svg version="1.1" xmlns="http://www.w3.org/2000/svg" width="1024" height="1024">
<path d="M0 0 C337.92 0 675.84 0 1024 0 C1024 337.92 1024 675.84 1024 1024 C686.08 1024 348.16 1024 0 1024 C0 686.08 0 348.16 0 0 Z " fill="#D5E8E3" transform="translate(0,0)"/>
<path d="M0 0 C3.1518534 3.53671613 4.26665858 7.49733333 5.56640625 11.94921875 C6.05644858 13.53626941 6.54803607 15.12284363 7.04101562 16.70898438 C7.80404506 19.18852483 8.55720217 21.66933166 9.28344727 24.15991211 C12.49670971 35.10553086 15.42477937 42.11616163 25 49 C26.64017547 50.44124444 28.26705246 51.89788599 29.875 53.375 C30.69484375 54.11234375 31.5146875 54.8496875 32.359375 55.609375 C35.29470599 58.26680483 38.21073147 60.94453051 41.125 63.625 C44.99367822 67.18253099 48.90334125 70.68289575 52.875 74.125 C55.61823456 76.54550108 58.30882906 79.0220241 61 81.5 C64.93628951 85.12406949 68.90781178 88.69718107 72.953125 92.19921875 C75.44074726 94.38775665 77.87353452 96.63239191 80.3125 98.875 C84.96751421 103.12748857 89.76689104 107.14906535 94.6875 111.08984375 C95.450625 111.72019531 96.21375 112.35054688 97 113 C97.53567093 113.39294754 98.07134186 113.78589508 98.62324524 114.19075012 C100.74775836 116.98265992 100.3589755 119.3929474 100.34057617 122.8581543 C100.34101425 123.55109589 100.34145233 124.24403748 100.34190369 124.95797729 C100.33981465 127.24701168 100.31647926 129.53531242 100.29296875 131.82421875 C100.28737318 133.41176452 100.2831029 134.99931548 100.28010559 136.58686829 C100.26865368 140.76435663 100.23918373 144.94153183 100.20599365 149.11889648 C100.17530011 153.38195561 100.1616018 157.64506535 100.14648438 161.90820312 C100.11431417 170.27227908 100.06311387 178.63610058 100 187 C101.10087952 186.96669083 102.20175903 186.93338165 103.33599854 186.89906311 C113.75044224 186.59395661 124.16397132 186.36965842 134.58188248 186.22281742 C139.93735319 186.14477737 145.28919592 186.03910377 150.64257812 185.8684082 C155.81710667 185.70446299 160.98816605 185.61555212 166.16509247 185.57684135 C168.13181942 185.5492889 170.09837243 185.49547416 172.06360626 185.41404915 C187.01030325 184.81984446 187.01030325 184.81984446 191.98179626 188.44517136 C195.54324799 191.93448975 198.26419286 195.87196387 200.83789825 200.12327385 C202.5831593 202.94176807 204.59540502 205.50507097 206.625 208.125 C207.33785156 209.0840625 208.05070312 210.043125 208.78515625 211.03125 C212.79309929 216.40344879 216.89246169 221.70378501 221 227 C222.14082031 228.48886719 222.14082031 228.48886719 223.3046875 230.0078125 C224.00851562 230.91273438 224.71234375 231.81765625 225.4375 232.75 C226.05496094 233.54921875 226.67242188 234.3484375 227.30859375 235.171875 C228.96413876 237.25559906 228.96413876 237.25559906 232 238 C232 309.94 232 381.88 232 456 C236.29 456 240.58 456 245 456 C253.19618452 459.32969996 256.8662487 465.11368284 260.30078125 472.8515625 C261 475 261 475 261 479 C259.18029237 478.99528639 259.18029237 478.99528639 257.32382298 478.99047756 C228.50996495 478.91785056 199.69631443 478.89170267 170.88238991 478.92259431 C167.33394708 478.92635811 163.78550398 478.92973067 160.23706055 478.93286133 C159.53064564 478.93349115 158.82423073 478.93412097 158.09640931 478.93476988 C146.66632799 478.94402813 135.23651801 478.92160884 123.80649347 478.88743024 C112.07341606 478.85305254 100.34069453 478.85283848 88.60760683 478.88417059 C82.01909942 478.90028781 75.43144325 478.90063583 68.84300423 478.86323357 C62.63986794 478.82851675 56.43820427 478.83599017 50.23511124 478.87562943 C47.96034299 478.88276467 45.68546621 478.87456998 43.41082191 478.84977531 C31.62523339 478.3316843 31.62523339 478.3316843 20.74990654 481.94388008 C18.49610564 484.17854259 16.7925962 486.39332279 15 489 C13.61804347 490.30849454 12.20503463 491.58578242 10.75 492.8125 C10.1003125 493.36550781 9.450625 493.91851563 8.78125 494.48828125 C8.1934375 494.98714844 7.605625 495.48601562 7 496 C6.0925 496.825 5.185 497.65 4.25 498.5 C2 500 2 500 0.04394531 499.74853516 C-3.35857826 498.50246047 -5.68833811 495.85267298 -8.25 493.375 C-9.87170402 491.83145039 -11.49586171 490.29181078 -13.13559246 488.767407 C-14.36628624 487.60074319 -15.56995108 486.40480522 -16.74280262 485.18000692 C-21.06946861 480.9177234 -24.0926492 479.19740072 -30.18333244 479.07025772 C-31.07440256 479.08675667 -31.96547268 479.10325561 -32.88354492 479.12025452 C-33.85001513 479.11018999 -34.81648533 479.10012546 -35.81224251 479.08975595 C-39.03577265 479.06460667 -42.25696223 479.0890964 -45.48046875 479.11352539 C-47.79690239 479.10563404 -50.1133273 479.09467133 -52.42973328 479.08087158 C-58.70823361 479.05215742 -64.98598799 479.06637396 -71.26448822 479.08831334 C-77.82954114 479.10394844 -84.39444769 479.08008151 -90.95947266 479.06040955 C-101.97516079 479.03155915 -112.99063729 479.0293436 -124.00634766 479.04467773 C-135.34982458 479.06040131 -146.69314641 479.06141371 -158.03662109 479.04272461 C-158.73646327 479.04157668 -159.43630544 479.04042875 -160.15735495 479.03924603 C-163.66844706 479.03339641 -167.1795386 479.02725844 -170.69062996 479.02097714 C-199.79378415 478.96928464 -228.89681925 478.96859841 -258 479 C-257.86200503 477.55516265 -257.71763072 476.1109336 -257.57055664 474.66699219 C-257.49084122 473.86267761 -257.41112579 473.05836304 -257.32899475 472.22967529 C-256.45846086 466.32986108 -252.0872598 461.43467104 -247.4375 457.9375 C-243.63913044 455.85410036 -240.51518782 455.79537299 -236.22265625 455.87890625 C-235.05613525 455.89638916 -233.88961426 455.91387207 -232.68774414 455.93188477 C-231.80078857 455.95436279 -230.91383301 455.97684082 -230 456 C-230.00460896 454.87925174 -230.00921793 453.75850348 -230.01396656 452.60379314 C-230.12484477 425.36405336 -230.20707179 398.12434276 -230.25906086 370.88442516 C-230.28486908 357.71152425 -230.32006975 344.53877219 -230.37719727 331.3659668 C-230.42695192 319.88779346 -230.45927194 308.40972789 -230.47044247 296.93144971 C-230.47697464 290.85079793 -230.49238166 284.77045453 -230.52865028 278.68990135 C-230.56248416 272.97143147 -230.57307842 267.25339819 -230.56553841 261.53483772 C-230.5669186 259.43168646 -230.57692568 257.32852121 -230.59602737 255.22545624 C-230.62076821 252.36205622 -230.61497471 249.50032214 -230.60127258 246.6368866 C-230.61583679 245.79739839 -230.630401 244.95791019 -230.64540654 244.09298295 C-230.61523914 241.77373028 -230.61523914 241.77373028 -230 238 C-227.56929302 236.07285023 -227.56929302 236.07285023 -225 235 C-223.25156157 233.22255827 -223.25156157 233.22255827 -221.765625 231.19140625 C-221.19642334 230.45075928 -220.62722168 229.7101123 -220.04077148 228.94702148 C-219.44981689 228.16012939 -218.8588623 227.3732373 -218.25 226.5625 C-217.31812866 225.34252319 -217.31812866 225.34252319 -216.36743164 224.09790039 C-214.56904411 221.73875801 -212.78236928 219.37125781 -211 217 C-210.56606934 216.42475586 -210.13213867 215.84951172 -209.68505859 215.25683594 C-208.60055132 213.81855395 -207.51894349 212.37808706 -206.4375 210.9375 C-205.77437302 210.08079208 -205.11124603 209.22408417 -204.42802429 208.34141541 C-202.59147834 205.90378258 -201.02003931 203.38625136 -199.46736145 200.75978088 C-192.39617738 189.42410435 -192.39617738 189.42410435 -186.73052597 187.04835129 C-180.48588212 185.63554735 -174.17362944 186.04427043 -167.82421875 186.33984375 C-165.80265997 186.37161316 -163.78096889 186.39578267 -161.75923157 186.41273499 C-156.47678319 186.4771796 -151.20247991 186.64367817 -145.92321777 186.83270264 C-140.52089654 187.00767124 -135.11723774 187.08447058 -129.71289062 187.16992188 C-119.13837749 187.35140503 -108.56986975 187.64090942 -98 188 C-98.02664734 187.12240524 -98.05329468 186.24481049 -98.08074951 185.34062195 C-98.32218331 177.02993183 -98.5043752 168.7204348 -98.62174606 160.40703106 C-98.68412361 156.13367153 -98.76856001 151.86323162 -98.90527344 147.59155273 C-99.03662777 143.46100007 -99.10759907 139.33323548 -99.13852692 135.20075417 C-99.16053392 133.63243533 -99.20351541 132.06425268 -99.26876068 130.49713707 C-99.78318388 117.61728937 -99.78318388 117.61728937 -95.39367676 112.63858032 C-92.47620963 109.78134842 -89.30085724 107.39695472 -86 105 C-84.61144341 103.80726992 -83.23252852 102.60292946 -81.875 101.375 C-81.25109375 100.83359375 -80.6271875 100.2921875 -79.984375 99.734375 C-75.94625309 96.20499286 -71.98085319 92.59365774 -68 89 C-66.33359149 87.49971321 -64.66692647 85.99971128 -63 84.5 C-62.175 83.7575 -61.35 83.015 -60.5 82.25 C-58 80 -55.5 77.75 -53 75.5 C-52.17242187 74.75492187 -51.34484375 74.00984375 -50.4921875 73.2421875 C-48.85260121 71.76707382 -47.21200345 70.29308348 -45.5703125 68.8203125 C-40.46011899 64.23256689 -35.38704913 59.60717576 -30.33398438 54.95678711 C-26.91408431 51.81688859 -23.44862631 48.74049684 -19.9140625 45.73046875 C-19.28242188 45.15941406 -18.65078125 44.58835938 -18 44 C-16.55512207 42.73675903 -16.55512207 42.73675903 -15.08105469 41.44799805 C-11.4531981 37.7945506 -10.19776535 33.97071459 -8.7890625 29.1015625 C-8.53119965 28.26660248 -8.27333679 27.43164246 -8.00765991 26.57138062 C-7.19560301 23.92763781 -6.41001159 21.27688385 -5.625 18.625 C-5.07595435 16.82108542 -4.52518981 15.01769305 -3.97265625 13.21484375 C-2.62848473 8.81568532 -1.30797414 4.41004962 0 0 Z " fill="#003E42" transform="translate(511,101)"/>
<path d="M0 0 C1.66117161 1.44083738 3.30889777 2.89744857 4.9375 4.375 C5.56785156 4.92414063 6.19820312 5.47328125 6.84765625 6.0390625 C12.56094578 11.32287924 16.7367155 17.88011618 20.9375 24.375 C21.90429688 25.86773437 21.90429688 25.86773437 22.890625 27.390625 C27.35390276 34.64830275 30.62205748 42.17416118 32.9375 50.375 C33.19789063 51.294021 33.45828125 52.21304199 33.7265625 53.15991211 C35.96210664 61.8153269 36.5034732 70.15018029 36.4375 79.0625 C36.43236389 80.11922409 36.43236389 80.11922409 36.42712402 81.19729614 C36.33225227 92.59852486 35.44370821 102.80512814 30.9375 113.375 C30.55045898 114.29200684 30.16341797 115.20901367 29.76464844 116.15380859 C22.6915886 132.50661696 13.76028051 147.54637942 3.9375 162.375 C2.88175781 163.97021484 2.88175781 163.97021484 1.8046875 165.59765625 C-13.36539844 188.40715822 -29.51333685 210.18400885 -48.0625 230.375 C-49.56298926 232.06206498 -51.06298065 233.74957288 -52.5625 235.4375 C-56.8936264 240.25750133 -61.43229294 244.84330798 -66.0625 249.375 C-70.39505344 247.70944418 -73.19804113 244.50066065 -76.375 241.25 C-76.95604492 240.66178467 -77.53708984 240.07356934 -78.13574219 239.4675293 C-81.68148208 235.85474811 -85.12052921 232.17952473 -88.3984375 228.3203125 C-90.36389014 226.02267068 -92.39979871 223.79626877 -94.4375 221.5625 C-99.16473494 216.3108995 -103.6641186 210.90353209 -108.0625 205.375 C-108.58505371 204.71967285 -109.10760742 204.0643457 -109.64599609 203.38916016 C-117.90007654 193.00377759 -125.74005201 182.43708816 -133.0625 171.375 C-133.50658203 170.70678223 -133.95066406 170.03856445 -134.40820312 169.35009766 C-137.68875953 164.39740152 -140.89688008 159.40185709 -144.0625 154.375 C-144.55395508 153.59640625 -145.04541016 152.8178125 -145.55175781 152.015625 C-164.73413202 121.42251373 -177.56448586 91.06780978 -169.1640625 54.2890625 C-161.515604 25.3477635 -142.13313782 4.02060481 -117.1875 -11.375 C-80.00912775 -32.25397991 -32.93382364 -26.44617576 0 0 Z " fill="#2CB09F" transform="translate(579.0625,316.625)"/>
<path d="M0 0 C26.4 0 52.8 0 80 0 C80 64.35 80 128.7 80 195 C52.61 195 25.22 195 -3 195 C-3.16065467 166.27405184 -3.16065467 166.27405184 -3.20101547 151.95982456 C-3.2230763 144.25591074 -3.25096532 136.55217245 -3.30175781 128.84838867 C-3.34632422 122.08562319 -3.36921076 115.32304767 -3.37950897 108.56014442 C-3.38683768 105.99406261 -3.40114671 103.42798988 -3.42292023 100.86198997 C-3.53800037 86.72350092 -2.96585781 73.70103042 0.54934216 59.98100948 C2.34209331 52.1004032 2.18619851 44.04565703 2.18530273 36.01147461 C2.1874776 33.83492112 2.20564935 31.65888534 2.22460938 29.48242188 C2.25478628 21.70661781 1.83178335 14.32388619 0.4309082 6.64331055 C0 4 0 4 0 0 Z " fill="#006D6A" transform="translate(638,362)"/>
<path d="M0 0 C26.07 0 52.14 0 79 0 C78 11 78 11 77.45019531 14.73535156 C76.58230054 21.02900067 76.75756358 27.40582921 76.75 33.75 C76.74832825 34.48588348 76.74665649 35.22176697 76.74493408 35.97994995 C76.74319539 48.74489914 77.39225471 61.19553745 81.03903198 73.50805664 C82.37471033 78.86567933 82.26412863 84.15538501 82.22705078 89.6484375 C82.22734283 90.79077347 82.22763489 91.93310944 82.22793579 93.11006165 C82.2265486 96.86511985 82.21101593 100.61997669 82.1953125 104.375 C82.19158021 106.98673392 82.18873426 109.59846925 82.18673706 112.21020508 C82.1805392 118.36880972 82.1641515 124.52734274 82.14403808 130.68591595 C82.11942453 138.39085726 82.10852789 146.09581039 82.09765625 153.80078125 C82.07821875 167.53390986 82.03814755 181.26688233 82 195 C54.94 195 27.88 195 0 195 C0 130.65 0 66.3 0 0 Z " fill="#006966" transform="translate(306,362)"/>
<path d="M0 0 C75.87959402 0 75.87959402 0 94.890625 18.66015625 C108.61241099 33.88117442 111.86358971 50.64937786 111.14355469 70.48242188 C110.17436642 87.47947878 102.53042025 101.35978022 90.10546875 112.734375 C65.58671476 132.76232563 28.31689737 127 0 127 C0 85.09 0 43.18 0 0 Z " fill="#013D40" transform="translate(365,635)"/>
<path d="M0 0 C0.96599121 0.01015137 1.93198242 0.02030273 2.92724609 0.03076172 C20.3834524 0.40979734 34.65716291 7.05283857 47.08984375 19.3125 C59.78723069 33.09347138 63.74771608 48.67076608 63.46875 66.91796875 C62.80530381 82.82685553 54.38496188 96.54061148 43.125 107.375 C29.74313904 118.69506312 14.28129626 124.19085695 -3.3046875 123.71875 C-20.40162287 122.07265557 -35.60316138 114.28565204 -46.875 101.375 C-53.10181734 93.55261786 -57.43710122 85.11208381 -59.875 75.375 C-60.06320312 74.63121094 -60.25140625 73.88742187 -60.4453125 73.12109375 C-63.06757027 56.36248273 -60.39472001 40.88992645 -50.6796875 26.796875 C-50.08414062 25.99765625 -49.48859375 25.1984375 -48.875 24.375 C-48.34132813 23.65828125 -47.80765625 22.9415625 -47.2578125 22.203125 C-35.75869435 8.00804135 -18.10839131 -0.27643973 0 0 Z " fill="#003D41" transform="translate(510.875,334.625)"/>
<path d="M0 0 C9.24 0 18.48 0 28 0 C28.94875 4.475625 29.8975 8.95125 30.875 13.5625 C35.57168981 35.71080835 40.28638682 57.85528839 45 80 C47.21688022 76.67467968 48.11731922 73.50131792 49.13891602 69.69873047 C49.34242676 68.95862732 49.5459375 68.21852417 49.75561523 67.45599365 C50.42668706 65.01105725 51.09017873 62.56412681 51.75390625 60.1171875 C52.21890615 58.41977547 52.68448504 56.72252195 53.15061951 55.02542114 C54.37626754 50.55871625 55.59595967 46.0904096 56.81384277 41.62158203 C58.76573 34.46073699 60.72361005 27.30154475 62.68717766 20.1438942 C63.37321069 17.63799193 64.05487127 15.13092778 64.73622131 12.62374878 C65.15413685 11.09661275 65.57221367 9.56952086 65.99047852 8.04248047 C66.18010666 7.34013275 66.3697348 6.63778503 66.56510925 5.91415405 C67.88628599 1.11371401 67.88628599 1.11371401 69 0 C75.93 0 82.86 0 90 0 C97.59 26.73 105.18 53.46 113 81 C114.95482425 75.13552726 116.62961335 69.70962936 117.796875 63.71484375 C117.95137619 62.94770554 118.10587738 62.18056732 118.26506042 61.3901825 C118.59449123 59.75263745 118.92152207 58.114608 119.24630737 56.47613525 C120.10579835 52.14425909 120.98543844 47.81646909 121.86328125 43.48828125 C122.04037125 42.6131488 122.21746124 41.73801636 122.3999176 40.83636475 C124.03268748 32.78846132 125.73111058 24.75564698 127.47888184 16.73196411 C127.78400745 15.33016896 128.08764344 13.92804873 128.38977051 12.52560425 C128.80673992 10.59174785 129.22938184 8.6591171 129.65234375 6.7265625 C129.88945068 5.63939941 130.12655762 4.55223633 130.37084961 3.43212891 C131 1 131 1 132 0 C133.99964982 -0.08758003 136.0023611 -0.10696576 138.00390625 -0.09765625 C139.21884766 -0.09443359 140.43378906 -0.09121094 141.68554688 -0.08789062 C142.96494141 -0.07951172 144.24433594 -0.07113281 145.5625 -0.0625 C146.84576172 -0.05798828 148.12902344 -0.05347656 149.45117188 -0.04882812 C152.63416022 -0.03699545 155.81705762 -0.02051068 159 0 C157.42483029 10.11839697 154.82183535 19.96199683 152.2734375 29.8671875 C151.80196036 31.7100686 151.3307438 33.55301637 150.85977173 35.39602661 C149.87198327 39.25796823 148.88156682 43.11922308 147.88916016 46.97998047 C146.64101227 51.83618767 145.39857075 56.69383146 144.15795517 61.55196762 C138.65346023 83.09860879 132.99846294 104.58505987 127 126 C118.42 126 109.84 126 101 126 C99.90300781 121.87757813 98.80601562 117.75515625 97.67578125 113.5078125 C96.7860487 110.16647311 95.89612147 106.82518571 95.00606537 103.4839325 C94.07458926 99.98697956 93.1434353 96.48994166 92.21313477 92.99267578 C87.17727453 74.04166419 87.17727453 74.04166419 82.04296875 55.1171875 C81.84480057 54.38654083 81.64663239 53.65589417 81.44245911 52.90310669 C80.73383774 49.68460422 80.73383774 49.68460422 79 47 C75.15558052 60.83493353 71.35006394 74.67962973 67.609375 88.54296875 C67.31733688 89.62462311 67.02529877 90.70627747 66.72441101 91.82070923 C65.24876877 97.28727397 63.77566427 102.75450604 62.3059082 108.22265625 C61.75740476 110.25653214 61.20882425 112.29038725 60.66015625 114.32421875 C60.40631165 115.27193649 60.15246704 116.21965424 59.89093018 117.1960907 C59.65630066 118.06425919 59.42167114 118.93242767 59.17993164 119.8269043 C58.97533829 120.58770798 58.77074493 121.34851166 58.55995178 122.13237 C58 124 58 124 57 126 C48.75 126 40.5 126 32 126 C26.42769138 105.19383473 21.02638355 84.34829843 15.73052979 63.47006226 C12.84560911 52.09860482 9.94829925 40.7315661 6.9453125 29.390625 C6.70842209 28.49567322 6.47153168 27.60072144 6.22746277 26.6786499 C5.12285673 22.51159837 4.01244392 18.34618347 2.89477539 14.18261719 C2.5066355 12.7259215 2.11853102 11.26921637 1.73046875 9.8125 C1.39426514 8.56082031 1.05806152 7.30914063 0.71166992 6.01953125 C0 3 0 3 0 0 Z " fill="#014144" transform="translate(717,636)"/>
<path d="M0 0 C6.94047878 5.14148965 11.62018573 11.27466908 16.484375 18.32421875 C14.18094107 20.86223153 11.82308872 22.39561578 8.81640625 24.0234375 C7.47739258 24.75336914 7.47739258 24.75336914 6.11132812 25.49804688 C5.18255859 25.99755859 4.25378906 26.49707031 3.296875 27.01171875 C2.35650391 27.52283203 1.41613281 28.03394531 0.44726562 28.56054688 C-1.87119827 29.81981406 -4.1921864 31.07416121 -6.515625 32.32421875 C-7.25554687 31.58300781 -7.99546875 30.84179688 -8.7578125 30.078125 C-9.66789062 29.16933594 -10.57796875 28.26054688 -11.515625 27.32421875 C-12.19882812 26.63199219 -12.88203125 25.93976562 -13.5859375 25.2265625 C-21.86683576 17.30775675 -30.13910118 14.68578024 -41.51928711 14.77856445 C-50.5884729 15.18848949 -59.27249841 18.64552519 -65.515625 25.32421875 C-74.95754461 37.93388195 -76.94989896 49.88886005 -75.515625 65.32421875 C-73.64180617 75.44060968 -68.62239315 84.73714696 -60.140625 90.76171875 C-50.11530825 96.69953219 -40.16037736 97.71853365 -28.609375 95.85546875 C-21.41307555 93.98976148 -15.63890139 90.82137987 -11.72265625 84.37109375 C-9.71626769 80.42503739 -7.91596038 76.52522489 -6.515625 72.32421875 C-16.745625 71.99421875 -26.975625 71.66421875 -37.515625 71.32421875 C-37.515625 64.06421875 -37.515625 56.80421875 -37.515625 49.32421875 C-18.045625 49.32421875 1.424375 49.32421875 21.484375 49.32421875 C21.484375 71.56968753 20.25269234 89.84066415 4.6796875 106.22265625 C-8.76437254 118.99730251 -26.78699738 121.88548568 -44.58984375 121.59765625 C-60.91925615 120.95976391 -76.41674348 113.71991927 -87.890625 102.2109375 C-102.87789882 85.72939679 -105.48877365 66.60567647 -104.70654297 45.23876953 C-103.62274059 28.69345911 -94.44526749 14.31756995 -82.515625 3.32421875 C-59.10744593 -14.92679354 -24.7475075 -16.48552907 0 0 Z " fill="#023C3F" transform="translate(323.515625,643.67578125)"/>
<path d="M0 0 C8.91 0 17.82 0 27 0 C27.0093457 2.55282715 27.01869141 5.1056543 27.02832031 7.73583984 C27.06218167 16.19767201 27.11778138 24.65926265 27.18390274 33.12090111 C27.22330721 38.24809368 27.25553013 43.37511631 27.27099609 48.50244141 C27.28620902 53.45637801 27.3207366 58.40984719 27.36830902 63.36357498 C27.38307512 65.2476252 27.39103826 67.13174217 27.39188385 69.01585007 C26.95939432 84.51713925 26.95939432 84.51713925 33.74957275 97.91488647 C40.19759044 103.97014749 46.72279356 104.54514837 55.328125 104.30859375 C62.82582783 103.67846766 67.00042786 100.60284761 71.7734375 94.9765625 C75.07459074 89.6568697 75.30232577 84.38957999 75.31884766 78.33251953 C75.32889328 77.48308273 75.3389389 76.63364594 75.34928894 75.75846863 C75.38004029 72.96658978 75.39713363 70.17480648 75.4140625 67.3828125 C75.43278062 65.4408181 75.45235452 63.49883178 75.4727478 61.55685425 C75.52400688 56.4573239 75.56366594 51.3577672 75.60089111 46.25811768 C75.64096977 41.04961665 75.6920445 35.84122464 75.7421875 30.6328125 C75.83887318 20.42194409 75.92228471 10.21103044 76 0 C85.24 0 94.48 0 104 0 C104.04532064 10.89264256 104.08195623 21.78522171 104.10362434 32.67793751 C104.11402789 37.73674354 104.12812399 42.7954813 104.15087891 47.85424805 C104.17273016 52.74313204 104.18459437 57.63195066 104.18975449 62.52087975 C104.1934283 64.3790356 104.2006019 66.23718818 104.21146011 68.09531593 C104.30992261 85.65528388 103.26476912 101.75278862 91.29296875 115.74609375 C79.61838383 127.22179307 64.95710684 130.30250762 49.22705078 130.31469727 C34.47478836 130.10040018 22.66502893 125.29395826 11.6875 115.3125 C2.90108454 106.02091076 -0.33601235 94.19675494 -0.22705078 81.73828125 C-0.22734283 80.84953812 -0.22763489 79.96079498 -0.22793579 79.04512024 C-0.22655258 76.13414433 -0.21103925 73.22343069 -0.1953125 70.3125 C-0.19157878 68.28369283 -0.1887335 66.25488384 -0.18673706 64.22607422 C-0.17912889 58.90617833 -0.15950473 53.58639298 -0.1373291 48.26654053 C-0.11680984 42.83005264 -0.10772237 37.39354676 -0.09765625 31.95703125 C-0.07625605 21.30463131 -0.041097 10.65234217 0 0 Z " fill="#024245" transform="translate(600,635)"/>
<path d="M0 0 C32.67 0 65.34 0 99 0 C99 7.92 99 15.84 99 24 C86.79 24 74.58 24 62 24 C62 57.99 62 91.98 62 127 C53.42 127 44.84 127 36 127 C36 93.01 36 59.02 36 24 C24.12 24 12.24 24 0 24 C0 16.08 0 8.16 0 0 Z " fill="#003E41" transform="translate(484,635)"/>
<path d="M0 0 C3.06333061 1.22533224 4.59258725 2.71732446 6.83203125 5.1328125 C10.20887984 8.66543005 13.65016493 11.94765935 17.35546875 15.12890625 C19.94892019 17.38062131 22.48340101 19.69175968 25.01953125 22.0078125 C28.16036681 24.87253065 31.31053881 27.71967152 34.51953125 30.5078125 C37.72852369 33.29595348 40.87869569 36.14309435 44.01953125 39.0078125 C49.48646645 43.98729806 54.97744802 48.91555362 60.6796875 53.625 C61.50641968 54.30852539 61.50641968 54.30852539 62.34985352 55.00585938 C63.45077214 55.91376711 64.55407869 56.81878809 65.65991211 57.72070312 C66.96452764 58.79482047 68.24460062 59.89862285 69.51953125 61.0078125 C69.51953125 61.3378125 69.51953125 61.6678125 69.51953125 62.0078125 C23.64953125 62.0078125 -22.22046875 62.0078125 -69.48046875 62.0078125 C-65.43827677 57.96562052 -61.34789404 54.02746877 -57.16796875 50.1328125 C-56.16503784 49.19755737 -56.16503784 49.19755737 -55.1418457 48.2434082 C-51.26632267 44.63968613 -47.35960271 41.08530222 -43.3515625 37.62890625 C-35.23868377 30.60000297 -27.38013663 23.27445589 -19.48046875 16.0078125 C-18.9076416 15.48155273 -18.33481445 14.95529297 -17.74462891 14.41308594 C-15.98897772 12.79983704 -14.2345443 11.18527429 -12.48046875 9.5703125 C-11.94059326 9.07426514 -11.40071777 8.57821777 -10.84448242 8.06713867 C-8.58261158 5.98180409 -6.42054999 3.9377938 -4.41796875 1.59765625 C-2.48046875 0.0078125 -2.48046875 0.0078125 0 0 Z " fill="#006A67" transform="translate(512.48046875,157.9921875)"/>
<path d="M0 0 C34.13513514 0 34.13513514 0 45.5625 10.3125 C55.640552 21.42419836 56.62661214 32.37339834 56.13183594 46.89599609 C55.52889892 56.51842421 50.68907073 64.83076747 43.6875 71.3125 C31.03146443 81.33186149 15.51576581 80 0 80 C0 53.6 0 27.2 0 0 Z " fill="#CEE4E0" transform="translate(392,659)"/>
<path d="M0 0 C7.50952696 4.238181 12.87883825 10.88092965 16.171875 18.828125 C18.41478612 27.41889777 18.16050423 37.76431023 14.3359375 45.8203125 C11.98791704 49.65129325 9.19519132 52.85599023 6 56 C5.2575 56.7425 4.515 57.485 3.75 58.25 C-5.90753248 64.39570249 -16.64759542 65.74200703 -27.828125 63.41015625 C-36.63145935 60.40650286 -43.83426962 53.91310909 -48.0625 45.6875 C-51.98836711 37.0114734 -52.7549992 26.71847003 -49.4375 17.6875 C-44.58249618 7.38541873 -37.68878641 0.99122573 -27.078125 -3.13671875 C-17.77337141 -5.74630066 -8.53245105 -4.27290193 0 0 Z " fill="#D7E9E5" transform="translate(529,366)"/>
<path d="M0 0 C8.91 0 17.82 0 27 0 C27 41.91 27 83.82 27 127 C18.09 127 9.18 127 0 127 C0 85.09 0 43.18 0 0 Z " fill="#003D40" transform="translate(170,635)"/>
<path d="M0 0 C7.65218012 5.57758907 12.01232049 11.03696148 15 20 C16.01610633 30.37971913 15.18278239 38.25202066 9 47 C3.4248159 53.43555202 -2.29477346 56.55919457 -10.7109375 57.34765625 C-20.42975941 57.84053936 -27.8688446 56.62948155 -35.27734375 49.9453125 C-42.60247507 42.28902696 -44.58684538 35.64039072 -44.55639648 25.14648438 C-44.22177107 17.14530168 -41.49525117 10.60467892 -35.87890625 4.8125 C-25.8474798 -3.53253413 -11.93514475 -6.60508886 0 0 Z " fill="#043D40" transform="translate(695,805)"/>
<path d="M0 0 C10.07451905 -0.37253002 20.14737398 -0.65588522 30.22740459 -0.82899475 C34.90971077 -0.91213496 39.58727176 -1.02462215 44.2668457 -1.20703125 C77.0715924 -2.45295611 77.0715924 -2.45295611 84.2512207 3.40649414 C87.20860819 6.61344252 89.2601252 10.02767365 91.04109192 13.99513245 C92.55188154 17.15386387 94.64785281 19.69335018 96.8125 22.4375 C100 26.84742268 100 26.84742268 100 28 C72.94 28 45.88 28 18 28 C14.04 21.07 14.04 21.07 10 14 C8.19867622 11.4662959 6.46098097 9.07089354 4.5 6.6875 C0 1.08881579 0 1.08881579 0 0 Z " fill="#006E6A" transform="translate(611,310)"/>
<path d="M0 0 C1.07246475 0.02696457 1.07246475 0.02696457 2.16659546 0.05447388 C3.30863937 0.05337868 3.30863937 0.05337868 4.47375488 0.05226135 C6.98505426 0.05573904 9.49448822 0.09460541 12.00546265 0.13381958 C13.74851468 0.14314714 15.49157983 0.15026352 17.23464966 0.15525818 C21.81841335 0.17433263 26.40138259 0.22343685 30.98483276 0.27877808 C35.66347506 0.32996118 40.34224597 0.35277019 45.02108765 0.37796021 C54.19851969 0.43155549 63.37536256 0.51687342 72.55233765 0.62210083 C71.46409173 2.34706824 70.37385156 4.07077759 69.2828064 5.79397583 C68.37244629 7.23401978 68.37244629 7.23401978 67.44369507 8.70315552 C65.1403585 12.25791117 62.70808328 15.70483958 60.2281189 19.13772583 C58.16783229 22.19213674 56.38027179 25.42321608 54.55233765 28.62210083 C27.82233765 28.62210083 1.09233765 28.62210083 -26.44766235 28.62210083 C-22.69596441 22.99455392 -19.02620121 17.6205872 -14.82266235 12.37210083 C-14.35859985 11.78686646 -13.89453735 11.20163208 -13.41641235 10.59866333 C-12.09729421 8.93672353 -10.77355535 7.27863928 -9.44766235 5.62210083 C-8.91647797 4.77354019 -8.38529358 3.92497955 -7.8380127 3.05070496 C-5.15211299 0.32182166 -3.76278766 0.0390794 0 0 Z " fill="#006A68" transform="translate(339.4476623535156,309.3778991699219)"/>
<path d="M0 0 C3.63 0 7.26 0 11 0 C13.52900756 2.7378247 14.66981603 4.37915035 16.1875 7.625 C16.58839844 8.388125 16.98929687 9.15125 17.40234375 9.9375 C18.22645567 11.50748536 19.03427312 13.08613043 19.82568359 14.67285156 C21.59768537 18.18443596 23.54568201 21.58772741 25.5 25 C26.1290625 26.134375 26.758125 27.26875 27.40625 28.4375 C28.74697418 31.09153794 28.74697418 31.09153794 31 32 C31.20753906 31.22785156 31.41507812 30.45570313 31.62890625 29.66015625 C33.52675711 24.59381364 36.21554136 20.10140298 38.9375 15.4375 C39.47568359 14.50486328 40.01386719 13.57222656 40.56835938 12.61132812 C42.037686 10.06944741 43.51252811 7.53130278 45 5 C45.32685791 4.07453369 45.65371582 3.14906738 45.99047852 2.19555664 C46.65362061 1.47102295 47.3167627 0.74648926 48 0 C51.63 0 55.26 0 59 0 C59 19.14 59 38.28 59 58 C55.37 58 51.74 58 48 58 C48 45.79 48 33.58 48 21 C43.05 29.58 38.1 38.16 33 47 C30.69 47 28.38 47 26 47 C23.92016602 44.796875 23.92016602 44.796875 22.25390625 41.75 C21.42741577 40.28820312 21.42741577 40.28820312 20.58422852 38.796875 C19.91705811 37.54390625 19.2498877 36.2909375 18.5625 35 C15.3140625 29.06 15.3140625 29.06 12 23 C11.67 34.55 11.34 46.1 11 58 C7.37 58 3.74 58 0 58 C0 38.86 0 19.72 0 0 Z " fill="#033A3D" transform="translate(308,803)"/>
<path d="M0 0 C29.7027027 0 29.7027027 0 37.3125 5.3125 C41.31041682 9.31041682 43.13236869 12.74443628 43.5 18.375 C43.30223807 23.48241669 41.45182567 27.26747641 38 31 C35.72440868 32.75427404 33.38268061 34.39498007 31 36 C31.35827881 36.55985596 31.71655762 37.11971191 32.08569336 37.6965332 C33.70630883 40.23306866 35.32195221 42.77273417 36.9375 45.3125 C37.78344727 46.63411133 37.78344727 46.63411133 38.64648438 47.98242188 C39.45375977 49.25375977 39.45375977 49.25375977 40.27734375 50.55078125 C40.77484131 51.33106689 41.27233887 52.11135254 41.78491211 52.9152832 C43 55 43 55 44 58 C39.76342904 58.82613134 36.20207611 59.10201506 32 58 C27.8644691 53.50658662 25.39977534 48.15595104 22.94140625 42.61328125 C22.02409988 40.50652517 22.02409988 40.50652517 20 38 C17.03 37.67 14.06 37.34 11 37 C11 43.93 11 50.86 11 58 C7.37 58 3.74 58 0 58 C0 38.86 0 19.72 0 0 Z " fill="#033D40" transform="translate(793,803)"/>
<path d="M0 0 C29.5 0 29.5 0 37.375 5.25 C41.27720221 9.33802136 43.11346808 13.36616662 43.375 19 C43.15493498 23.74056727 41.92382665 27.91032623 38.640625 31.4765625 C32.58345432 36.81561501 27.38768832 37.28179273 19.6875 37.125 C16.820625 37.08375 13.95375 37.0425 11 37 C11 43.93 11 50.86 11 58 C7.37 58 3.74 58 0 58 C0 38.86 0 19.72 0 0 Z " fill="#023A3D" transform="translate(387,803)"/>
<path d="M0 0 C3.3 0 6.6 0 10 0 C13.94044385 7.38245446 16.84408248 15.13002329 19.8125 22.9375 C20.87361561 25.71197176 21.93805385 28.48515731 23.00390625 31.2578125 C23.26291718 31.93211807 23.5219281 32.60642365 23.78878784 33.30116272 C26.12505454 39.36407856 28.57149008 45.37682976 31.12036133 51.35327148 C33 55.80065744 33 55.80065744 33 58 C29.04 58 25.08 58 21 58 C17 48.25 17 48.25 17 46 C9.08 46 1.16 46 -7 46 C-7.99 49.3 -8.98 52.6 -10 56 C-10.33 56.66 -10.66 57.32 -11 58 C-14.96 58 -18.92 58 -23 58 C-15.72900005 38.49139188 -8.07838253 19.18855204 0 0 Z " fill="#03393C" transform="translate(260,803)"/>
<path d="M0 0 C3.63 0 7.26 0 11 0 C11.0093457 1.21059082 11.01869141 2.42118164 11.02832031 3.66845703 C11.06829948 8.1751741 11.1340804 12.68121422 11.20751953 17.1875 C11.23568321 19.13500245 11.2569206 21.08261822 11.27099609 23.03027344 C11.29248946 25.83587468 11.33917198 28.64012 11.390625 31.4453125 C11.39185364 32.31116974 11.39308228 33.17702698 11.39434814 34.06912231 C11.5281434 39.63570191 12.37369349 42.71613909 16 47 C19.93762009 48.96881005 24.70766117 48.45834498 29 48 C32.61691275 45.90219061 33.68291409 44.95125774 35 41 C35.11265547 39.63484686 35.17582586 38.26522788 35.20532227 36.89575195 C35.22526749 36.07512772 35.24521271 35.25450348 35.26576233 34.40901184 C35.28247482 33.52767075 35.29918732 32.64632965 35.31640625 31.73828125 C35.33718735 30.83248825 35.35796844 29.92669525 35.37937927 28.99345398 C35.44476558 26.09987984 35.50370904 23.20621493 35.5625 20.3125 C35.6056956 18.35090207 35.64931023 16.38931332 35.69335938 14.42773438 C35.80043582 9.61858261 35.90173414 4.80933954 36 0 C39.63 0 43.26 0 47 0 C47.07450314 5.83493296 47.12876864 11.66958518 47.16479492 17.50488281 C47.17982344 19.4873538 47.20025198 21.46979186 47.22631836 23.45214844 C47.26296383 26.31193193 47.27978604 29.17127344 47.29296875 32.03125 C47.30845261 32.90865845 47.32393646 33.78606689 47.33988953 34.69006348 C47.34165827 41.24902523 46.47418764 47.02890439 42.1328125 52.2421875 C41.13894531 53.05042969 41.13894531 53.05042969 40.125 53.875 C39.46757812 54.42929687 38.81015625 54.98359375 38.1328125 55.5546875 C31.35931523 60.14478638 23.85504342 59.6601579 16 59 C10.45304108 57.57922985 6.91325999 54.32730832 3.2265625 50.07421875 C-0.27146771 44.15876002 -0.27529633 38.01670826 -0.1953125 31.34765625 C-0.1924826 30.44752304 -0.18965271 29.54738983 -0.18673706 28.61997986 C-0.17561278 25.7673468 -0.15052283 22.91503689 -0.125 20.0625 C-0.11496017 18.11914518 -0.10583608 16.17578541 -0.09765625 14.23242188 C-0.07569888 9.48815824 -0.04122301 4.74413376 0 0 Z " fill="#023C3F" transform="translate(446,803)"/>
<path d="M0 0 C3.63 0 7.26 0 11 0 C11.01458252 1.18553467 11.02916504 2.37106934 11.04418945 3.5925293 C11.10225938 8.00038477 11.17949184 12.40773404 11.26245117 16.81518555 C11.29565962 18.72102631 11.32370425 20.62696446 11.34643555 22.53295898 C11.38005668 25.27630015 11.43237595 28.01875222 11.48828125 30.76171875 C11.49467117 31.61086349 11.5010611 32.46000824 11.50764465 33.33488464 C11.62345333 38.01805084 11.94117188 41.21672446 15 45 C19.25864456 47.83909637 23.00316775 47.51085825 28 47 C31.1888797 45.73773512 32.48609423 44.95829386 34.09912109 41.95043945 C35.32490164 37.93592512 35.35574236 34.15722277 35.4140625 29.98046875 C35.43342865 29.12189774 35.4527948 28.26332672 35.4727478 27.3787384 C35.53231556 24.64842526 35.57883734 21.91806943 35.625 19.1875 C35.66320079 17.33136227 35.70225375 15.47524188 35.7421875 13.61914062 C35.83799827 9.07956856 35.92211321 4.53991354 36 0 C39.63 0 43.26 0 47 0 C47.07464507 5.38937415 47.12883434 10.77844152 47.16479492 16.16821289 C47.17979997 17.99834441 47.20021059 19.82844046 47.22631836 21.65844727 C47.26306906 24.30233558 47.27980937 26.94574492 47.29296875 29.58984375 C47.30845261 30.39646957 47.32393646 31.2030954 47.33988953 32.03416443 C47.34197486 39.2136809 45.76579003 45.24744496 41.875 51.3125 C34.91140118 57.82195107 27.93427418 58.72206602 18.53515625 58.44921875 C12.09481127 57.63083237 8.36798362 54.70629793 4.125 50 C-0.07173774 44.07519378 -0.27688402 39.38007523 -0.1953125 32.32421875 C-0.1924826 31.3990596 -0.18965271 30.47390045 -0.18673706 29.52070618 C-0.17557392 26.57617058 -0.15047637 23.63194312 -0.125 20.6875 C-0.11496521 18.68685336 -0.10584023 16.68620194 -0.09765625 14.68554688 C-0.07564722 9.7902465 -0.04114391 4.89517543 0 0 Z " fill="#033D40" transform="translate(727,804)"/>
<path d="M0 0 C4.22574862 2.11287431 7.06910634 4.85681228 10.1875 8.375 C8.85417905 12.37496286 6.6917173 13.21282337 3.1875 15.375 C0.26659997 14.06563102 -1.56869462 12.61880538 -3.8125 10.375 C-7.57399682 9.12116773 -10.8784211 8.93241612 -14.8125 9.375 C-16.94120693 10.33617905 -16.94120693 10.33617905 -17.8125 12.375 C-18.06298636 15.50049017 -18.06298636 15.50049017 -17.8125 18.375 C-13.17577766 20.87169664 -8.7166239 22.79477653 -3.6875 24.375 C3.1364448 26.60094673 8.14974738 28.95285155 11.49609375 35.51953125 C13.15935308 39.98308029 12.43803474 43.56772139 11.0625 48 C8.44922954 52.70388683 5.44878246 55.46148048 0.44140625 57.484375 C-7.32254272 59.60944146 -16.07147433 59.68969066 -23.4375 56.25 C-27.51171312 53.88016603 -30.12753629 51.22344798 -32.8125 47.375 C-27.46796218 42.39486249 -27.46796218 42.39486249 -24.75 42.3125 C-22.18929397 43.71675814 -20.06679742 45.52532007 -17.8125 47.375 C-12.85431702 49.02772766 -7.82311481 48.96142932 -2.8125 47.5 C-0.65871944 46.53436335 -0.65871944 46.53436335 0.1875 44.375 C0.227492 42.37539988 0.23096799 40.37452758 0.1875 38.375 C-4.7903666 36.0117704 -9.72673778 34.0504204 -15 32.4375 C-21.33793663 30.36517212 -24.91894376 28.21533436 -28.6875 22.5625 C-30.51071118 17.396735 -30.51071118 13.353265 -28.6875 8.1875 C-22.05921681 -1.75492478 -10.8794233 -4.41803992 0 0 Z " fill="#033B3E" transform="translate(540.8125,803.625)"/>
<path d="M0 0 C4.22067321 2.65641703 7.81170761 6.16040001 10.33984375 10.47265625 C10.2265625 12.640625 10.2265625 12.640625 9.33984375 14.47265625 C6.46484375 16.28515625 6.46484375 16.28515625 3.33984375 17.47265625 C0.33984375 16.47265625 0.33984375 16.47265625 -2.09765625 13.53515625 C-4.92973991 10.1504709 -6.64283017 8.76325934 -10.9921875 8.13671875 C-17.14184716 8.03987372 -20.75895282 8.64971757 -25.66015625 12.47265625 C-30.57376629 18.01621629 -30.42698498 24.53191009 -30.11328125 31.63671875 C-29.53210224 36.55669966 -28.30470266 40.06208072 -24.66015625 43.47265625 C-20.65071807 46.46748965 -17.62368139 46.90480762 -12.66015625 46.91015625 C-11.46390625 46.92949219 -10.26765625 46.94882812 -9.03515625 46.96875 C-5.07063155 46.38600158 -3.48452764 45.25646217 -0.66015625 42.47265625 C1.12947194 39.8540793 1.12947194 39.8540793 2.33984375 37.47265625 C5.77579541 38.99974588 8.45896829 41.0719267 11.33984375 43.47265625 C9.94107128 48.75690779 6.68009875 51.4638739 2.33984375 54.47265625 C-4.91049414 58.35676584 -12.5739321 58.38534189 -20.66015625 57.47265625 C-30.22968414 54.4604862 -35.97487495 48.08636573 -40.66015625 39.47265625 C-43.24712418 31.71175246 -43.11744922 20.24019317 -39.59765625 12.78515625 C-30.91221401 -1.31049164 -15.58491335 -7.0473109 0 0 Z " fill="#03393C" transform="translate(215.66015625,804.52734375)"/>
<path d="M0 0 C4.9961892 2.83184813 7.89529949 7.06089848 9.6875 12.4375 C10.35688126 19.84458773 10.31382299 26.34429411 5.6875 32.4375 C1.17338653 37.04373823 -2.15633021 38.6110534 -8.5625 38.75 C-14.04020571 38.69570556 -17.20809965 38.33668033 -21.3125 34.4375 C-27.20309533 28.25640956 -27.73470061 23.32845964 -27.6484375 14.9609375 C-27.081578 9.01550412 -24.89958523 5.77218667 -20.55078125 1.84765625 C-14.20330545 -2.80029256 -7.16004785 -3.10133899 0 0 Z " fill="#D0E6E1" transform="translate(689.3125,813.5625)"/>
<path d="M0 0 C15.84 0 31.68 0 48 0 C48 3.3 48 6.6 48 10 C42.06 10 36.12 10 30 10 C30 25.84 30 41.68 30 58 C26.37 58 22.74 58 19 58 C19 42.16 19 26.32 19 10 C12.73 10 6.46 10 0 10 C0 6.7 0 3.4 0 0 Z " fill="#084144" transform="translate(593,803)"/>
<path d="M0 0 C4.86018426 3.06011601 6.59127768 5.52812351 8 11 C8.15839988 13.52451932 8.21554772 16.05653464 8.1953125 18.5859375 C8.1924826 19.28772125 8.18965271 19.989505 8.18673706 20.71255493 C8.17562512 22.93355028 8.15053834 25.15412845 8.125 27.375 C8.11495854 28.88931705 8.10583473 30.40364049 8.09765625 31.91796875 C8.07742461 35.61226556 8.03826118 39.30567095 8 43 C0.41 43 -7.18 43 -15 43 C-15.09219877 38.28505729 -15.17171589 33.5732827 -15.21972656 28.8581543 C-15.23975347 27.25680909 -15.26698354 25.6555362 -15.30175781 24.05444336 C-15.35067419 21.74314463 -15.37305711 19.43281846 -15.390625 17.12109375 C-15.41127014 16.41351425 -15.43191528 15.70593475 -15.45318604 14.97691345 C-15.45564321 9.44502792 -14.07550189 6.43240222 -11 2 C-7.29718134 -0.46854577 -4.29423209 -0.78741118 0 0 Z " fill="#003C40" transform="translate(347,469)"/>
<path d="M0 0 C0.33 0 0.66 0 1 0 C1 15.84 1 31.68 1 48 C-11.21 48 -23.42 48 -36 48 C-34.13908097 44.27816194 -32.16847982 41.4594522 -29.625 38.1875 C-29.18655762 37.62200439 -28.74811523 37.05650879 -28.29638672 36.47387695 C-24.46329261 31.54820965 -20.54749185 26.68963555 -16.62817383 21.83251953 C-12.18988228 16.30343111 -7.93978911 10.64178253 -3.74462891 4.92651367 C-2.51874427 3.26761027 -1.26251679 1.63119741 0 0 Z " fill="#006766" transform="translate(594,509)"/>
<path d="M0 0 C5.6201873 5.6201873 5.6201873 5.6201873 7.83203125 8.63671875 C8.31615479 9.2910791 8.80027832 9.94543945 9.29907227 10.61962891 C10.04821899 11.6432251 10.04821899 11.6432251 10.8125 12.6875 C11.87901371 14.12718782 12.94672047 15.56599261 14.015625 17.00390625 C14.52931641 17.69500488 15.04300781 18.38610352 15.57226562 19.09814453 C18.6119826 23.14728872 21.81871487 27.06211709 25 31 C26.98738004 33.472703 28.96454694 35.95327597 30.9375 38.4375 C31.4229126 39.04158691 31.9083252 39.64567383 32.40844727 40.26806641 C34.44173698 42.83479097 35.95579707 44.86739122 37 48 C24.79 48 12.58 48 0 48 C0 32.16 0 16.32 0 0 Z " fill="#006563" transform="translate(429,509)"/>
<path d="M0 0 C3.97982763 0.06901435 4.94362172 0.25334702 8.25 2.75 C11.42819132 7.15845893 11.32219265 10.94236826 11.28515625 16.16796875 C11.2837413 16.91838943 11.28232635 17.66881012 11.28086853 18.44197083 C11.2752756 20.8363546 11.26272444 23.23064453 11.25 25.625 C11.24498408 27.24934761 11.24042134 28.87369668 11.23632812 30.49804688 C11.2261598 34.47792975 11.20658312 38.45760993 11.1875 42.4375 C3.9275 42.4375 -3.3325 42.4375 -10.8125 42.4375 C-10.90460637 37.70425594 -10.98415193 32.97415071 -11.03222656 28.24072266 C-11.05227627 26.63254226 -11.07952364 25.02443417 -11.11425781 23.41650391 C-11.16307264 21.0977998 -11.18553428 18.78006375 -11.203125 16.4609375 C-11.22377014 15.74819672 -11.24441528 15.03545593 -11.26568604 14.30111694 C-11.26795593 9.19028623 -9.97944165 6.39286437 -6.8125 2.4375 C-4.34214288 -0.03285712 -3.4164993 0.08707719 0 0 Z " fill="#003F42" transform="translate(679.8125,468.5625)"/>
<path d="M0 0 C2.97046873 1.79023785 5.42502414 3.85004828 7 7 C7.08658569 9.55362604 7.11562516 12.0795442 7.09765625 14.6328125 C7.0962413 15.38464813 7.09482635 16.13648376 7.09336853 16.91110229 C7.08776465 19.3157751 7.07521157 21.72035527 7.0625 24.125 C7.0574855 25.75390491 7.0529225 27.38281127 7.04882812 29.01171875 C7.03864424 33.00787702 7.01906972 37.00383465 7 41 C-0.26 41 -7.52 41 -15 41 C-15.0921434 36.55152158 -15.17167434 32.10638947 -15.21972656 27.65771484 C-15.23976791 26.14653264 -15.26700905 24.63542728 -15.30175781 23.12451172 C-15.35061109 20.94479357 -15.37304224 18.76610569 -15.390625 16.5859375 C-15.41157227 15.2767334 -15.43251953 13.9675293 -15.45410156 12.61865234 C-14.82758453 7.62605261 -12.62683848 4.68293636 -9.1875 1.125 C-5.88560521 -0.57311732 -3.66155273 -0.50504176 0 0 Z " fill="#003C40" transform="translate(347,391)"/>
<path d="M0 0 C2.64233769 2.19257809 4.46669809 3.93339618 6 7 C6.08649451 9.48099734 6.11565054 11.93344928 6.09765625 14.4140625 C6.0962413 15.14370209 6.09482635 15.87334167 6.09336853 16.62509155 C6.08776531 18.95843585 6.07521235 21.29168464 6.0625 23.625 C6.05748541 25.20572778 6.05292243 26.78645707 6.04882812 28.3671875 C6.03864517 32.24485818 6.01907055 36.12232202 6 40 C-1.26 40 -8.52 40 -16 40 C-16.0921434 35.55152158 -16.17167434 31.10638947 -16.21972656 26.65771484 C-16.23976791 25.14653264 -16.26700905 23.63542728 -16.30175781 22.12451172 C-16.35061109 19.94479357 -16.37304224 17.76610569 -16.390625 15.5859375 C-16.41157227 14.2767334 -16.43251953 12.9675293 -16.45410156 11.61865234 C-15.82620895 6.61509089 -13.56299332 3.73045689 -10.25 0.0625 C-6.75610972 -1.58739263 -3.56432156 -1.18103512 0 0 Z " fill="#003F43" transform="translate(685,392)"/>
<path d="M0 0 C6.93 0 13.86 0 21 0 C21 11.55 21 23.1 21 35 C14 32.66666667 7 30.33333333 0 28 C0 18.76 0 9.52 0 0 Z " fill="#31B6A4" transform="translate(548,245)"/>
<path d="M0 0 C6.93 0 13.86 0 21 0 C21 9.24 21 18.48 21 28 C14 30.33333333 7 32.66666667 0 35 C0 23.45 0 11.9 0 0 Z " fill="#26B09F" transform="translate(455,245)"/>
<path d="M0 0 C6.6 0 13.2 0 20 0 C20 7.92 20 15.84 20 24 C13.4 24 6.8 24 0 24 C0 16.08 0 8.16 0 0 Z " fill="#2DB1A0" transform="translate(502,244)"/>
<path d="M0 0 C8.91 0 17.82 0 27 0 C27 41.91 27 83.82 27 127 C18.09 127 9.18 127 0 127 C0 85.09 0 43.18 0 0 Z M1 2 C1 42.92 1 83.84 1 126 C8.92 126 16.84 126 25 126 C25 85.08 25 44.16 25 2 C17.08 2 9.16 2 1 2 Z " fill="#0D3134" transform="translate(170,635)"/>
<path d="M0 0 C2.536875 -0.103125 5.07375 -0.20625 7.6875 -0.3125 C8.47729248 -0.35802002 9.26708496 -0.40354004 10.08081055 -0.45043945 C14.13682313 -0.52992889 15.63018594 -0.2803819 18.98828125 2.265625 C21.98507878 6.33894204 21.62869161 8.0490536 21 13 C19.25746655 16.23613354 18.52814056 16.82395315 15 18 C12.42502932 18.07035439 9.88550071 18.0934934 7.3125 18.0625 C3.6928125 18.0315625 3.6928125 18.0315625 0 18 C0 12.06 0 6.12 0 0 Z " fill="#D0E5E1" transform="translate(398,813)"/>
<path d="M0 0 C3.83625 -0.12375 3.83625 -0.12375 7.75 -0.25 C8.54889648 -0.28641602 9.34779297 -0.32283203 10.17089844 -0.36035156 C13.58990274 -0.41374659 15.63435008 -0.25145641 18.4765625 1.703125 C20.73427327 5.10705816 20.69639158 7.65545866 20.484375 11.6484375 C20 14 20 14 17.875 16.625 C12.6143907 19.3574524 5.66073548 18.21361266 0 18 C0 12.06 0 6.12 0 0 Z " fill="#D3E7E3" transform="translate(804,813)"/>
<path d="M0 0 C32.67 0 65.34 0 99 0 C99 7.92 99 15.84 99 24 C86.79 24 74.58 24 62 24 C62 23.67 62 23.34 62 23 C73.55 23 85.1 23 97 23 C97 16.07 97 9.14 97 2 C65.32 2 33.64 2 1 2 C1 8.93 1 15.86 1 23 C12.88 23 24.76 23 37 23 C36.67 23.66 36.34 24.32 36 25 C24.12 24.67 12.24 24.34 0 24 C0 16.08 0 8.16 0 0 Z " fill="#16393B" transform="translate(484,635)"/>
<path d="M0 0 C8.91 0 17.82 0 27 0 C27 28.71 27 57.42 27 87 C24.85887978 82.71775956 24.7281592 79.73868493 24.77294922 75.11035156 C24.77265717 74.31972824 24.77236511 73.52910492 24.77206421 72.71452332 C24.77345533 70.1064448 24.78900621 67.49865349 24.8046875 64.890625 C24.80841841 63.08030351 24.81126501 61.26998 24.81326294 59.45965576 C24.82089328 54.69865325 24.84053666 49.93777308 24.8626709 45.17681885 C24.8831422 40.31711482 24.89226741 35.45739099 24.90234375 30.59765625 C24.92378311 21.06504181 24.95896041 11.53255023 25 2 C17.08 2 9.16 2 1 2 C1 30.05 1 58.1 1 87 C0.67 87 0.34 87 0 87 C0 58.29 0 29.58 0 0 Z " fill="#163A3C" transform="translate(600,635)"/>
<path d="M0 0 C4.62 0 9.24 0 14 0 C14 0.33 14 0.66 14 1 C10.04 1 6.08 1 2 1 C2 26.41 2 51.82 2 78 C9.59 78 17.18 78 25 78 C21 80 21 80 0 80 C0 53.6 0 27.2 0 0 Z " fill="#DFF0EC" transform="translate(392,659)"/>
<path d="M0 0 C0.66 0 1.32 0 2 0 C3.17430074 3.2681432 4.33811256 6.53992515 5.5 9.8125 C5.83386719 10.74126953 6.16773438 11.67003906 6.51171875 12.62695312 C6.98544922 13.9659668 6.98544922 13.9659668 7.46875 15.33203125 C7.90864258 16.56530151 7.90864258 16.56530151 8.35742188 17.82348633 C9 20 9 20 9 23 C3.72 23 -1.56 23 -7 23 C-6.35566405 19.13398431 -5.86949609 16.23477641 -4.58984375 12.6953125 C-4.18862305 11.57382812 -4.18862305 11.57382812 -3.77929688 10.4296875 C-3.50150391 9.66914062 -3.22371094 8.90859375 -2.9375 8.125 C-2.65583984 7.34125 -2.37417969 6.5575 -2.08398438 5.75 C-1.39386218 3.83169424 -0.69755684 1.91561481 0 0 Z " fill="#CEE5E1" transform="translate(264,817)"/>
<path d="M0 0 C3.63 0 7.26 0 11 0 C11 12.87 11 25.74 11 39 C10.67 39 10.34 39 10 39 C10 26.79 10 14.58 10 2 C7.36 2 4.72 2 2 2 C2.01047363 3.10512939 2.02094727 4.21025879 2.03173828 5.34887695 C2.06792407 9.44698856 2.09089529 13.54508603 2.10986328 17.64331055 C2.11992411 19.41742324 2.13357422 21.19151935 2.15087891 22.96557617 C2.17512378 25.51485284 2.18648218 28.06391037 2.1953125 30.61328125 C2.20563507 31.40712723 2.21595764 32.20097321 2.22659302 33.01887512 C2.2273811 36.88223043 2.19440369 38.70839446 0 42 C0 28.14 0 14.28 0 0 Z " fill="#0D3235" transform="translate(482,803)"/>
<path d="M0 0 C2.36574234 3.5486135 2.10865265 4.5764525 1.625 8.6875 C1.51414063 9.68136719 1.40328125 10.67523437 1.2890625 11.69921875 C1.19367188 12.45847656 1.09828125 13.21773437 1 14 C1.66 14.33 2.32 14.66 3 15 C2.34 15 1.68 15 1 15 C1.16371094 15.78987305 1.32742187 16.57974609 1.49609375 17.39355469 C2.12055679 21.86282215 2.10491506 26.19776075 2.0625 30.703125 C2.05871338 31.62212585 2.05492676 32.54112671 2.05102539 33.48797607 C2.038857 36.40869948 2.02021564 39.32932188 2 42.25 C1.97347945 46.10937214 1.95346876 49.96869645 1.9375 53.828125 C1.92920166 54.71767883 1.92090332 55.60723267 1.91235352 56.52374268 C1.75218034 60.89807106 1.75218034 60.89807106 3 65 C2.75378093 66.88484944 2.43111913 68.76022087 2.0625 70.625 C1.86785156 71.62789062 1.67320312 72.63078125 1.47265625 73.6640625 C1.31667969 74.43492187 1.16070312 75.20578125 1 76 C0.67 76 0.34 76 0 76 C0 50.92 0 25.84 0 0 Z " fill="#C1DDD6" transform="translate(198,646)"/>
<path d="M0 0 C7.92 0 15.84 0 24 0 C24 0.99 24 1.98 24 3 C13.11 3.495 13.11 3.495 2 4 C1.34 5.32 0.68 6.64 0 8 C-1.08174162 4.63458162 -0.92538169 3.70152678 0 0 Z " fill="#BAD5D2" transform="translate(253,849)"/>
<path d="M0 0 C1.66666667 1.66666667 3.33333333 3.33333333 5 5 C5.721875 5.70125 6.44375 6.4025 7.1875 7.125 C9.50326992 9.52062406 11.15401269 12.23101903 13 15 C13.99 15.33 14.98 15.66 16 16 C16 16.99 16 17.98 16 19 C16.66 19.66 17.32 20.32 18 21 C18.95715906 22.40345903 19.89215467 23.82212915 20.8125 25.25 C24.04373962 30.14414587 27.05840655 34.70560437 32 38 C28.13184202 37.83853424 27.03427944 37.03587152 24.30859375 34.18359375 C23.33781171 32.94555597 22.38158347 31.69601567 21.4375 30.4375 C20.92517822 29.77580811 20.41285645 29.11411621 19.88500977 28.43237305 C18.24118993 26.29958626 16.61885854 24.15178065 15 22 C14.44699219 21.27006836 13.89398437 20.54013672 13.32421875 19.78808594 C10.25422308 15.73490079 7.20032118 11.67033885 4.17919922 7.58056641 C3.19413732 6.26021635 2.1804887 4.96125638 1.16015625 3.66796875 C0 2 0 2 0 0 Z " fill="#E9F2F0" transform="translate(711,300)"/>
<path d="M0 0 C2.9262753 1.31177858 4.75289234 2.75289234 7 5 C7.61875 5.27714844 8.2375 5.55429688 8.875 5.83984375 C12.1175577 7.6101372 13.94609141 10.36633762 16.21875 13.22265625 C18.20154506 15.20110307 19.33403109 15.42432957 22 16 C22.433125 16.78375 22.86625 17.5675 23.3125 18.375 C25.66446553 22.03361305 27.95859695 22.55119513 32 24 C31.01 24.99 30.02 25.98 29 27 C24.13501226 22.87533648 19.3656506 18.65884304 14.63671875 14.37890625 C12.83463092 12.75302256 11.02432146 11.13621746 9.20703125 9.52734375 C8.31371094 8.73457031 7.42039062 7.94179687 6.5 7.125 C5.27796875 6.04605469 5.27796875 6.04605469 4.03125 4.9453125 C2 3 2 3 0 0 Z " fill="#E7F2F0" transform="translate(559,170)"/>
<path d="M0 0 C4.21018977 3.87820348 7.14754529 8.00362914 10.125 12.875 C10.55425781 13.55691406 10.98351562 14.23882812 11.42578125 14.94140625 C18.25901246 25.97970282 18.25901246 25.97970282 17.6875 30.4375 C17.460625 30.953125 17.23375 31.46875 17 32 C15 30.8125 15 30.8125 13 29 C13.02320313 28.278125 13.04640625 27.55625 13.0703125 26.8125 C12.97522406 23.00896259 11.59611637 20.56640162 9.875 17.1875 C9.40501587 16.26372559 9.40501587 16.26372559 8.92553711 15.32128906 C6.68300487 11.02277252 4.16417984 7.17368858 1.06640625 3.453125 C0 2 0 2 0 0 Z " fill="#43CAB5" transform="translate(591,330)"/>
<path d="M0 0 C9.24 0 18.48 0 28 0 C28 0.99 28 1.98 28 3 C19.75 2.67 11.5 2.34 3 2 C2.67 2.66 2.34 3.32 2 4 C1.34 3.67 0.68 3.34 0 3 C0 2.01 0 1.02 0 0 Z " fill="#043537" transform="translate(717,636)"/>
<path d="M0 0 C0.86625 0.4640625 0.86625 0.4640625 1.75 0.9375 C3.84294184 1.92583364 5.74535275 2.5168613 8 3 C8 3.66 8 4.32 8 5 C12.29261204 9.70802611 17.21768543 13.80114865 22 18 C21.67 18.66 21.34 19.32 21 20 C20.29875 19.35933594 19.5975 18.71867187 18.875 18.05859375 C17.92625 17.19363281 16.9775 16.32867187 16 15.4375 C15.50250244 14.98366943 15.00500488 14.52983887 14.49243164 14.06225586 C10.90422635 10.79799778 7.26193341 7.60625134 3.55859375 4.47265625 C2 3 2 3 0 0 Z " fill="#E7F1EF" transform="translate(589,197)"/>
<path d="M0 0 C0.33 0.66 0.66 1.32 1 2 C1.5775 1.79375 2.155 1.5875 2.75 1.375 C5.57479077 0.90420154 6.50055749 1.71240841 9 3 C11.66709069 3.16750414 11.66709069 3.16750414 14 3 C13.67 3.66 13.34 4.32 13 5 C10.11788698 5.96070434 8.30149956 6.10581883 5.3125 6.0625 C4.10013672 6.04896484 4.10013672 6.04896484 2.86328125 6.03515625 C1.94095703 6.01775391 1.94095703 6.01775391 1 6 C0.67 5.01 0.34 4.02 0 3 C-0.66 2.67 -1.32 2.34 -2 2 C-1.34 2 -0.68 2 0 2 C0 1.34 0 0.68 0 0 Z " fill="#D0E6E3" transform="translate(525,847)"/>
<path d="M0 0 C1.12377697 3.30435084 0.89554742 5.0506862 -0.4375 8.25 C-0.72496094 8.95640625 -1.01242187 9.6628125 -1.30859375 10.390625 C-1.53675781 10.92171875 -1.76492188 11.4528125 -2 12 C-2.66 12 -3.32 12 -4 12 C-3.7834375 13.0828125 -3.7834375 13.0828125 -3.5625 14.1875 C-4 17 -4 17 -5.55859375 18.4453125 C-7.33838828 19.69868893 -9.13320095 20.88087302 -11 22 C-7.33333333 14.66666667 -3.66666667 7.33333333 0 0 Z " fill="#37BFAD" transform="translate(572,413)"/>
<path d="M0 0 C0.33 0 0.66 0 1 0 C1.24954005 1.43410368 1.47392642 2.87260072 1.6875 4.3125 C1.81511719 5.11300781 1.94273437 5.91351562 2.07421875 6.73828125 C2 9 2 9 0.51953125 10.79296875 C0.01808594 11.19128906 -0.48335938 11.58960938 -1 12 C-0.34 12.33 0.32 12.66 1 13 C-1 15 -1 15 -4.125 15.125 C-5.07375 15.08375 -6.0225 15.0425 -7 15 C-7 14.67 -7 14.34 -7 14 C-9.97 13.505 -9.97 13.505 -13 13 C-13 12.67 -13 12.34 -13 12 C-9.37 12 -5.74 12 -2 12 C-2 10.35 -2 8.7 -2 7 C-1.34 7 -0.68 7 0 7 C0 4.69 0 2.38 0 0 Z " fill="#C4E0DC" transform="translate(321,849)"/>
<path d="M0 0 C0.33 0 0.66 0 1 0 C1.20190089 6.35987804 0.6277833 11.85221129 -1 18 C-1.99 18 -2.98 18 -4 18 C-3.71800273 15.5610236 -3.42484385 13.12429067 -3.125 10.6875 C-3.04636719 9.99720703 -2.96773438 9.30691406 -2.88671875 8.59570312 C-2.44056153 5.04360529 -2.02019807 3.0302971 0 0 Z " fill="#CAE1DE" transform="translate(346,708)"/>
<path d="M0 0 C0.87785156 -0.00257813 1.75570313 -0.00515625 2.66015625 -0.0078125 C4.9375 0.125 4.9375 0.125 6.9375 1.125 C6.9375 1.785 6.9375 2.445 6.9375 3.125 C1.6575 3.125 -3.6225 3.125 -9.0625 3.125 C-7.2179895 -0.564021 -3.68313054 -0.01084869 0 0 Z " fill="#CAE0DD" transform="translate(274.0625,553.875)"/>
<path d="M0 0 C2.22656346 2.22656346 2.32230668 3.03509172 3 6 C3.6469365 7.6744239 4.30959426 9.34302621 5 11 C4.34 11 3.68 11 3 11 C2.67 12.65 2.34 14.3 2 16 C1.34 15.67 0.68 15.34 0 15 C0 10.05 0 5.1 0 0 Z " fill="#C7E0DB" transform="translate(320,826)"/>
<path d="M0 0 C-1.43308135 3.95906817 -3.33141949 7.28718181 -5.625 10.8125 C-6.57246094 12.27623047 -6.57246094 12.27623047 -7.5390625 13.76953125 C-8.02117188 14.50558594 -8.50328125 15.24164063 -9 16 C-9.33 15.34 -9.66 14.68 -10 14 C-9.22265625 12.16015625 -9.22265625 12.16015625 -8.0625 10.0625 C-6.5451154 7.31063302 -6 6.22211537 -6 3 C-3.9398797 0.3512739 -3.48011144 0 0 0 Z " fill="#3EC2AE" transform="translate(596,456)"/>
<path d="M0 0 C4.11518018 4.11518018 4.125 9.40087257 4.125 14.9375 C4.09319918 16.62521475 4.05491533 18.31287918 4 20 C3.67 20 3.34 20 3 20 C2.87882813 19.34773438 2.75765625 18.69546875 2.6328125 18.0234375 C1.88246641 14.11009406 1.1376045 10.39108648 -0.1875 6.625 C-1.03840273 3.87592963 -1.01838661 2.64780517 0 0 Z " fill="#41C2AE" transform="translate(610,365)"/>
<path d="M0 0 C2.17854707 3.2678206 3.49760034 6.38058265 5 10 C5.66 9.67 6.32 9.34 7 9 C7 12.96 7 16.92 7 21 C4.29646988 18.29646988 3.53245504 15.17811781 2.375 11.625 C2.03082031 10.61566406 2.03082031 10.61566406 1.6796875 9.5859375 C0.55368814 6.18112992 0 3.62604845 0 0 Z " fill="#F4FAF9" transform="translate(513,101)"/>
<path d="M0 0 C5.57142857 5.14285714 5.57142857 5.14285714 6 9 C-0.75 13 -0.75 13 -3 13 C-3 12.34 -3 11.68 -3 11 C-1.35 10.34 0.3 9.68 2 9 C1.34 6.03 0.68 3.06 0 0 Z " fill="#06292C" transform="translate(220,809)"/>
<path d="M0 0 C0.99 0 1.98 0 3 0 C6.07692308 6.4 6.07692308 6.4 5.6875 9.4375 C5.460625 9.953125 5.23375 10.46875 5 11 C3 9.8125 3 9.8125 1 8 C0.8125 5.5 0.8125 5.5 1 3 C0.67 2.01 0.34 1.02 0 0 Z " fill="#40BFAC" transform="translate(603,351)"/>
<path d="M0 0 C2.97 0.495 2.97 0.495 6 1 C5.01 1.495 5.01 1.495 4 2 C4 2.66 4 3.32 4 4 C5.32 4.66 6.64 5.32 8 6 C7.01 7.485 7.01 7.485 6 9 C1.125 3.375 1.125 3.375 0 0 Z " fill="#CAE3DE" transform="translate(186,841)"/>
<path d="M0 0 C0.66 0.66 1.32 1.32 2 2 C-0.125 4.5625 -0.125 4.5625 -3 7 C-6.3125 6.8125 -6.3125 6.8125 -9 6 C-6 4 -3 2 0 0 Z " fill="#C7E0DC" transform="translate(425,834)"/>
<path d="M0 0 C4.62 0 9.24 0 14 0 C13.01 0.33 12.02 0.66 11 1 C9.79117904 3.00016466 9.79117904 3.00016466 9 5 C9 4.34 9 3.68 9 3 C6.36 3 3.72 3 1 3 C0.67 2.01 0.34 1.02 0 0 Z " fill="#C3DCD9" transform="translate(676,862)"/>
<path d="M0 0 C0.66 0.66 1.32 1.32 2 2 C0.33333333 5.33333333 -1.33333333 8.66666667 -3 12 C-4.38125018 9.23749964 -4.19079306 7.05268901 -4 4 C-2.66666667 2.66666667 -1.33333333 1.33333333 0 0 Z " fill="#C8E1DD" transform="translate(254,676)"/>
<path d="M0 0 C0.33 0 0.66 0 1 0 C1.22331199 1.58129029 1.42804644 3.16521089 1.625 4.75 C1.74101562 5.63171875 1.85703125 6.5134375 1.9765625 7.421875 C2.00207817 10.22859878 1.44843844 11.63384866 0 14 C-0.99 14 -1.98 14 -3 14 C-2.01 9.38 -1.02 4.76 0 0 Z " fill="#C9E1DD" transform="translate(480,834)"/>
<path d="M0 0 C2.02350324 3.03525486 2.32124018 4.19426202 2.625 7.6875 C2.69976563 8.49574219 2.77453125 9.30398438 2.8515625 10.13671875 C2.92503906 11.05904297 2.92503906 11.05904297 3 12 C1 9 1 9 0 7 C-0.66 7.99 -1.32 8.98 -2 10 C-1.125 2.25 -1.125 2.25 0 0 Z " fill="#E6F2EF" transform="translate(796,681)"/>
<path d="M0 0 C0.33 0.66 0.66 1.32 1 2 C-0.07674702 4.28258633 -1.19546116 6.4356434 -2.4375 8.625 C-2.77587891 9.23601562 -3.11425781 9.84703125 -3.46289062 10.4765625 C-4.30146192 11.988353 -5.14982577 13.49470399 -6 15 C-6.33 14.34 -6.66 13.68 -7 13 C-6.10979134 10.93328442 -5.0104582 9.03220683 -3.91015625 7.0703125 C-2.73170055 4.766629 -2.73170055 4.766629 -3 1 C-2.01 0.67 -1.02 0.34 0 0 Z " fill="#3FC8B3" transform="translate(604,439)"/>
<path d="M0 0 C0.33 1.32 0.66 2.64 1 4 C0.38125 4.2475 -0.2375 4.495 -0.875 4.75 C-3.39578467 6.23281451 -3.7852998 7.40863958 -5 10 C-5.99 10.66 -6.98 11.32 -8 12 C-6.59023295 8.96147295 -4.91129772 6.4060405 -2.875 3.75 C-2.06675781 2.69039062 -2.06675781 2.69039062 -1.2421875 1.609375 C-0.83226562 1.07828125 -0.42234375 0.5471875 0 0 Z " fill="#DFEFEC" transform="translate(468,732)"/>
<path d="M0 0 C1.51400391 0.01740234 1.51400391 0.01740234 3.05859375 0.03515625 C4.07050781 0.04417969 5.08242188 0.05320312 6.125 0.0625 C7.29869141 0.07990234 7.29869141 0.07990234 8.49609375 0.09765625 C8.49609375 0.75765625 8.49609375 1.41765625 8.49609375 2.09765625 C5.49609375 4.09765625 5.49609375 4.09765625 3.05859375 3.84765625 C0.67657061 3.15047874 -1.33936767 2.30017768 -3.50390625 1.09765625 C-2.50390625 0.09765625 -2.50390625 0.09765625 0 0 Z " fill="#C7E1DC" transform="translate(286.50390625,736.90234375)"/>
<path d="M0 0 C0 3.58912412 -0.66436554 4.10857029 -3 6.6875 C-3.556875 7.31011719 -4.11375 7.93273437 -4.6875 8.57421875 C-5.120625 9.04472656 -5.55375 9.51523437 -6 10 C-6.66 9.67 -7.32 9.34 -8 9 C-6.85459775 7.68712379 -5.70866567 6.37470979 -4.5625 5.0625 C-3.92441406 4.33160156 -3.28632812 3.60070312 -2.62890625 2.84765625 C-1.77458541 1.87860647 -0.91348825 0.91348825 0 0 Z " fill="#013238" transform="translate(536,541)"/>
<path d="M0 0 C0.99 0 1.98 0 3 0 C1.68775452 3.93673644 0.08089673 6.22719294 -3 9 C-2.25 2.25 -2.25 2.25 0 0 Z " fill="#39C0AC" transform="translate(565,499)"/>
<path d="M0 0 C0.99 0.33 1.98 0.66 3 1 C-0.75 6.875 -0.75 6.875 -3 8 C-1.125 1.125 -1.125 1.125 0 0 Z " fill="#C6DFDB" transform="translate(191,815)"/>
<path d="M0 0 C0.33 0.66 0.66 1.32 1 2 C3.02463255 2.65213292 3.02463255 2.65213292 5 3 C2.69 3 0.38 3 -2 3 C-2.33 3.66 -2.66 4.32 -3 5 C-3.99 3.68 -4.98 2.36 -6 1 C-4.02 0.67 -2.04 0.34 0 0 Z " fill="#C9E1DC" transform="translate(273,764)"/>
<path d="M0 0 C0.99 0.33 1.98 0.66 3 1 C2.67 3.97 2.34 6.94 2 10 C1.67 10 1.34 10 1 10 C-1 4.375 -1 4.375 -1 1 C-0.67 0.67 -0.34 0.34 0 0 Z " fill="#E6F1EE" transform="translate(844,639)"/>
<path d="M0 0 C0.99 0 1.98 0 3 0 C7 5.14285714 7 5.14285714 7 9 C3.26115668 6.34345343 1.35021826 4.41889613 0 0 Z " fill="#CAE1DD" transform="translate(726,849)"/>
<path d="M0 0 C0.33 0.66 0.66 1.32 1 2 C1.5775 1.773125 2.155 1.54625 2.75 1.3125 C5 1 5 1 7.25 2.4375 C7.8275 2.953125 8.405 3.46875 9 4 C7.54207116 4.05399736 6.08357288 4.09279177 4.625 4.125 C3.81289063 4.14820313 3.00078125 4.17140625 2.1640625 4.1953125 C0 4 0 4 -2 2 C-1.34 2 -0.68 2 0 2 C0 1.34 0 0.68 0 0 Z " fill="#C8E0DB" transform="translate(525,847)"/>
<path d="M0 0 C-1.65 0.33 -3.3 0.66 -5 1 C-5.33 1.99 -5.66 2.98 -6 4 C-7.65 4.33 -9.3 4.66 -11 5 C-4.74206349 -1.42261905 -4.74206349 -1.42261905 0 0 Z " fill="#E2F2ED" transform="translate(677,814)"/>
<path d="M0 0 C4.75 0.75 4.75 0.75 7 3 C7 3.66 7 4.32 7 5 C4.0625 4.1875 4.0625 4.1875 1 3 C0.67 2.01 0.34 1.02 0 0 Z " fill="#C9E2DF" transform="translate(204,812)"/>
<path d="M0 0 C0.33 0.99 0.66 1.98 1 3 C1.66 3 2.32 3 3 3 C1.25 6.875 1.25 6.875 -1 8 C-2.2077558 4.37673261 -1.54311128 3.35853631 0 0 Z " fill="#CCE3DF" transform="translate(700,734)"/>
<path d="M0 0 C1.10740461 3.32221382 0.97233311 5.64103108 0 9 C-0.66 9.66 -1.32 10.32 -2 11 C-1.85892253 9.54119891 -1.71197585 8.08296449 -1.5625 6.625 C-1.48128906 5.81289063 -1.40007813 5.00078125 -1.31640625 4.1640625 C-1 2 -1 2 0 0 Z " fill="#E3F0EE" transform="translate(871,657)"/>
<path d="M0 0 C0.33 0 0.66 0 1 0 C1 3.96 1 7.92 1 12 C0.34 11.34 -0.32 10.68 -1 10 C-0.67 9.01 -0.34 8.02 0 7 C-0.66 7 -1.32 7 -2 7 C-1.34 4.69 -0.68 2.38 0 0 Z " fill="#CAE3DE" transform="translate(306,810)"/>
<path d="M0 0 C0.598125 0.350625 1.19625 0.70125 1.8125 1.0625 C1.8125 2.0525 1.8125 3.0425 1.8125 4.0625 C-1.1575 3.5675 -1.1575 3.5675 -4.1875 3.0625 C-4.5175 2.0725 -4.8475 1.0825 -5.1875 0.0625 C-2.1875 -0.9375 -2.1875 -0.9375 0 0 Z " fill="#C9E0DC" transform="translate(432.1875,634.9375)"/>
<path d="M0 0 C0.99 0.33 1.98 0.66 3 1 C3 2.65 3 4.3 3 6 C1.68 6.33 0.36 6.66 -1 7 C-0.67 4.69 -0.34 2.38 0 0 Z " fill="#1DA597" transform="translate(411,367)"/>
<path d="M0 0 C1.3271261 3.9813783 1.06915913 7.85045227 1 12 C-1.24497221 9.75502779 -1.37003419 9.03972651 -1.75 6 C-1.84796875 5.29875 -1.9459375 4.5975 -2.046875 3.875 C-2 2 -2 2 0 0 Z " fill="#E7F3EF" transform="translate(519,110)"/>
<path d="M0 0 C1.65 0 3.3 0 5 0 C4.67 2.31 4.34 4.62 4 7 C2.10786631 4.61426621 0.97608217 2.92824652 0 0 Z " fill="#C1DCD8" transform="translate(335,828)"/>
<path d="M0 0 C0 0.99 0 1.98 0 3 C-2.31 3.33 -4.62 3.66 -7 4 C-6.67 3.01 -6.34 2.02 -6 1 C-3.90006779 0.25486277 -2.22568901 0 0 0 Z " fill="#C3DCD9" transform="translate(434,758)"/>
<path d="M0 0 C0.66 0.33 1.32 0.66 2 1 C1.34 3.31 0.68 5.62 0 8 C-0.99 8 -1.98 8 -3 8 C-2.690625 7.236875 -2.38125 6.47375 -2.0625 5.6875 C-1.32106407 3.81210323 -0.63771783 1.91315348 0 0 Z " fill="#CAE1DE" transform="translate(226,660)"/>
<path d="M0 0 C2.64 0.66 5.28 1.32 8 2 C7.01 2.99 6.02 3.98 5 5 C3.35 3.35 1.7 1.7 0 0 Z " fill="#E0EFEA" transform="translate(583,192)"/>
</svg>
